/* XPM */
static char *magick[] = {
/* columns rows colors chars-per-pixel */
"32 32 7 1",
"  c Gray0",
". c #7f7f00",
"X c Gray50",
"o c Yellow",
"O c Gray60",
"+ c Gray100",
"@ c None",
/* pixels */
"OXOXXOXXOXXOXXOXXOXXOXXOXXXX@@@@",
"O                          OO@@@",
"X ooooooooooooooooooooooooo XX@@",
"X oooooooooooooooooooooooooo XX@",
"O ooooooooooooooooooooooooooo OX",
"X ooooo                        X",
"X ooooo  ..................... O",
"O ooooo . .................... X",
"X ooooo .. ................... O",
"X ooooo ... .................. X",
"O ooooo ....                   O",
"X ooooo .... XOXXOOXXOXXOXOXOXXX",
"X ooooo .... O@@@@@@@@@@@@@@@@@@",
"O ooooo .... X@@@@OXXOXOXXX@@@@@",
"X ooooo .... X@@@@X       XO@@@@",
"X ooooo .... O@@@@X  ooooo XX@@@",
"O ooooo .... X@@@@O o ooooo OO@@",
"X ooooo .... X@@@@X oo ooooo XX@",
"X ooooo .... O@@@@O ooo ooooo XX",
"O ooooo .... X@@@@X oooo       X",
"X ooooo .... OXOOXO oooo ..... O",
"X ooooo             oooo ..... X",
"O oooooooooooooooooo ooo ..... O",
"X ooooooooooooooooooo oo ..... X",
"X oooooooooooooooooooo o ..... O",
"O ooooooooooooooooooooo  ..... X",
"X                        ..... O",
"XX ........................... X",
"@XO .......................... O",
"@@XX ......................... X",
"@@@XO                          O",
"@@@@XXXOXXOXXOXXOXXOXXOXXOXXOXXX"
};
